<svg width="800" height="500" viewBox="0 0 800 500" fill="none" xmlns="http://www.w3.org/2000/svg">
  <!-- Fundo com gradiente suave -->
  <rect width="800" height="500" fill="url(#paint0_linear)" opacity="0.15"/>
  
  <!-- Silhuetas de pessoas ajudando umas às outras -->
  <g opacity="0.5">
    <!-- Pessoa 1 (ajudando) -->
    <path d="M250 280 C230 260 230 220 250 200 C270 180 310 180 330 200 L320 230 C300 210 280 210 260 230 C240 250 270 270 290 250 L250 280Z" fill="#26c485"/>
    
    <!-- Pessoa 2 (sendo ajudada) -->
    <path d="M370 330 C350 350 310 350 290 330 C270 310 270 270 290 250 L330 270 C310 290 310 310 330 330 C350 350 350 320 330 300 L370 330Z" fill="#1eaa70"/>
    
    <!-- Mãos estendidas entre as pessoas -->
    <path d="M320 230 L330 270" stroke="#1eaa70" stroke-width="8" stroke-linecap="round"/>
    
    <!-- Pessoa 3 (carregando ajuda) -->
    <path d="M490 250 C510 230 550 230 570 250 C590 270 590 310 570 330 L530 310 C550 290 550 270 530 250 C510 230 480 260 500 280 L490 250Z" fill="#26c485"/>
    
    <!-- Caixa de suprimentos -->
    <rect x="440" y="280" width="50" height="40" rx="5" fill="#1eaa70"/>
  </g>
  
  <!-- Elementos símbólicos -->
  <g opacity="0.7">
    <!-- Coração (símbolo de compaixão) -->
    <path d="M400 180 C420 150 460 150 480 180 C500 210 460 250 400 290 C340 250 300 210 320 180 C340 150 380 150 400 180Z" fill="#26c485" opacity="0.6"/>
    
    <!-- Casa (abrigo) -->
    <path d="M150 350 L200 300 L250 350 L250 400 L150 400 L150 350Z" fill="#1eaa70" opacity="0.5"/>
    <rect x="180" y="370" width="40" height="30" fill="#26c485" opacity="0.7"/>
    
    <!-- Gota d'água (necessidade básica) -->
    <path d="M600 350 C600 390 580 420 550 420 C520 420 500 390 500 350 C500 310 550 250 550 250 C550 250 600 310 600 350Z" fill="#64b5f6" opacity="0.6"/>
  </g>
  
  <!-- Linhas conectoras (comunidade) -->
  <g opacity="0.3">
    <path d="M200 200 C300 150 500 150 600 200" stroke="#26c485" stroke-width="3" stroke-dasharray="10 5"/>
    <path d="M150 250 C250 200 550 200 650 250" stroke="#1eaa70" stroke-width="3" stroke-dasharray="10 5"/>
    <path d="M100 300 C200 250 600 250 700 300" stroke="#26c485" stroke-width="3" stroke-dasharray="10 5"/>
  </g>
  
  <!-- Definições de gradientes -->
  <defs>
    <linearGradient id="paint0_linear" x1="0" y1="0" x2="800" y2="500" gradientUnits="userSpaceOnUse">
      <stop stop-color="#26c485"/>
      <stop offset="1" stop-color="#1eaa70"/>
    </linearGradient>
  </defs>
</svg>
